<svg width="239" height="38" viewBox="0 0 239 38" fill="none" xmlns="http://www.w3.org/2000/svg">
<path d="M30.8529 30.0032L30.8403 29.9695C30.4085 28.78 29.0943 28.0894 27.9106 28.4263C27.5568 28.5336 27.1966 28.6515 26.8238 28.7715C24.8525 29.4158 22.3967 30.2158 18.2224 30.2158C11.9671 30.2158 7.76325 25.6535 7.76325 18.8636C7.76325 12.1054 11.9671 7.56405 18.2224 7.56405C22.4747 7.56405 24.9494 8.35778 26.9355 8.99571C27.2682 9.10309 27.5926 9.20625 27.9127 9.3031C29.0964 9.63996 30.4085 8.94729 30.8403 7.75985C31.0003 7.33457 31.1583 6.92402 31.3184 6.51347C31.4763 6.10503 31.6343 5.69869 31.7922 5.27761C32.0408 4.58705 32.0134 3.88385 31.7143 3.29855C31.411 2.70905 30.8655 2.28587 30.1389 2.07743C29.5745 1.909 29.0522 1.74689 28.553 1.5932C25.6086 0.677355 23.4793 0.0141602 18.2224 0.0141602C13.2055 0.0141602 8.57622 1.97637 5.18533 5.53868C1.84077 9.05256 0 13.7855 0 18.8636C0 23.9439 1.84077 28.6768 5.18533 32.1886C8.57622 35.7509 13.2055 37.7131 18.2224 37.7131C23.4793 37.7131 25.6065 37.052 28.553 36.1341C29.0522 35.9783 29.5724 35.8162 30.1368 35.6498C30.8655 35.4414 31.411 35.0203 31.7122 34.4287C32.0113 33.8434 32.0408 33.1402 31.7901 32.4454C31.4784 31.6686 31.1604 30.8222 30.8529 30.0032Z" fill="#00B0B2"/>
<path d="M50.4441 0.0117188C40.0166 0.0117188 31.5352 8.46693 31.5352 18.8612C31.5352 29.2555 40.0187 37.7107 50.4441 37.7107C60.8421 37.7107 69.3025 29.2534 69.3025 18.8612C69.3025 8.46903 60.8421 0.0117188 50.4441 0.0117188ZM50.4441 30.2155C47.3923 30.2155 44.5827 29.0912 42.5355 27.0511C40.4484 24.971 39.2984 22.0635 39.2984 18.8612C39.2984 12.3135 43.9867 7.56161 50.4441 7.56161C56.8721 7.56161 61.5372 12.3135 61.5372 18.8612C61.5372 25.4405 56.8721 30.2155 50.4441 30.2155Z" fill="#00B0B2"/>
<path d="M99.518 0.222168H94.8697C94.0104 0.222168 93.2859 0.92326 93.2859 1.75278V23.0003L79.1116 1.69383C78.5892 0.908522 77.3635 0.222168 76.4894 0.222168H72.9511C72.1065 0.222168 71.4199 0.908522 71.4199 1.75278V35.9694C71.4199 36.8137 72.1065 37.5 72.9511 37.5H77.5993C78.4587 37.5 79.1832 36.7989 79.1832 35.9694V15.7788L92.6183 36.0284C93.168 36.8537 94.2505 37.5021 95.0825 37.5021H99.5201C100.365 37.5021 101.051 36.8158 101.051 35.9715V1.75489C101.049 0.910627 100.363 0.222168 99.518 0.222168Z" fill="#00B0B2"/>
<path d="M124.491 18.2762C122.747 16.7035 120.31 15.4487 116.82 14.3265C112.595 12.9728 110.873 11.7622 110.873 10.1495C110.873 8.33462 112.452 7.56195 116.155 7.56195C117.254 7.56195 118.143 7.67985 119.373 7.84197C119.95 7.91776 120.603 8.00408 121.372 8.0904C122.614 8.26094 123.804 7.36825 124.023 6.10924C124.23 5.2334 124.384 4.41862 124.552 3.46488C124.685 2.7701 124.556 2.1027 124.188 1.58898C123.798 1.0458 123.181 0.70262 122.404 0.595245C120.123 0.277333 118.078 0.0141602 116.157 0.0141602C107.987 0.0141602 103.109 4.00175 103.109 10.68C103.109 17.1709 108.223 19.7163 113.748 21.4996C118.16 22.9186 119.961 24.2829 119.961 26.2051C119.961 28.0747 119.36 30.2179 114.678 30.2179C111.789 30.2179 110.696 29.9821 109.31 29.6832C108.847 29.5842 108.368 29.479 107.772 29.3737C106.521 29.2032 105.333 30.0285 105.07 31.2412C104.794 32.1275 104.575 33.0118 104.381 33.835C104.044 35.2372 104.841 36.433 106.363 36.8141C110.441 37.7152 112.501 37.7152 114.678 37.7152C118.689 37.7152 122.056 36.4583 124.413 34.0792C126.549 31.9254 127.726 28.9589 127.726 25.7293C127.722 22.6744 126.664 20.2384 124.491 18.2762Z" fill="#00B0B2"/>
<path d="M137.019 0.222168H132.371C131.482 0.222168 130.787 0.893784 130.787 1.75278V35.9694C130.787 36.8284 131.482 37.5 132.371 37.5H137.019C137.864 37.5 138.55 36.8137 138.55 35.9694V1.75488C138.55 0.910627 137.864 0.222168 137.019 0.222168Z" fill="#00B0B2"/>
<path d="M174.261 15.4821H160.95C160.147 15.4821 159.471 16.16 159.471 16.96V21.5013C159.471 22.3035 160.15 22.9793 160.95 22.9793H168.029V28.9733C166.148 29.5313 163.802 30.2134 159.947 30.2134C156.904 30.2134 154.299 29.1207 152.412 27.0532C150.533 24.9942 149.541 22.1603 149.541 18.8612C149.541 12.1029 153.724 7.56161 159.947 7.56161C164.187 7.56161 166.538 8.30692 168.612 8.9659C168.979 9.0817 169.334 9.19539 169.69 9.30066C170.872 9.63752 172.186 8.94485 172.618 7.75741C172.776 7.33634 172.934 6.92579 173.094 6.51735C173.252 6.1068 173.412 5.69835 173.57 5.27517C173.818 4.58461 173.791 3.88141 173.492 3.29611C173.189 2.70661 172.643 2.28342 171.917 2.07499C171.354 1.90867 170.836 1.74655 170.341 1.59286C167.391 0.674914 165.257 0.0117188 159.95 0.0117188C149.76 0.0117188 141.78 8.29218 141.78 18.8612C141.78 29.4323 149.762 37.7107 159.95 37.7107C166.428 37.7107 169.992 36.5906 172.869 35.3821C173.669 35.1316 175.794 34.4684 175.794 31.4808V16.9621C175.792 16.1453 175.105 15.4821 174.261 15.4821Z" fill="#00B0B2"/>
<path d="M209.33 36.0226L196.59 2.48391C196.283 1.77861 195.777 1.20174 195.091 0.765923C194.404 0.351163 193.663 0.140625 192.888 0.140625C192.094 0.140625 191.361 0.351163 190.708 0.768028C190.059 1.20174 189.564 1.77861 189.236 2.48812L176.668 36.0142C176.527 36.389 176.578 36.7932 176.807 37.1237C177.035 37.4543 177.397 37.6417 177.797 37.6417H183.958C184.459 37.6417 184.914 37.328 185.093 36.8606L192.915 16.4131L200.893 36.8943C201.077 37.3638 201.521 37.669 202.026 37.669H208.195C208.595 37.669 208.968 37.4732 209.196 37.1448C209.423 36.8163 209.474 36.3953 209.33 36.0226Z" fill="#00B0B2"/>
<rect x="201.264" y="14.2783" width="37.7368" height="10.1991" rx="2" fill="#F8C534"/>
<rect x="225.741" width="37.7368" height="10.1991" rx="2" transform="rotate(90 225.741 0)" fill="#F8C534"/>
</svg>
